<?xml version="1.0" encoding="UTF-8"?><svg id="Layer_1" xmlns="http://www.w3.org/2000/svg" viewBox="0 0 2048 2048"><defs><style>.cls-1{fill:#8cc63f;}</style></defs><g><path class="cls-1" d="M912.53,521.62c-5.29-12.13-17.89-19.97-32.09-19.97s-26.8,7.84-32.09,19.97l-74.16,169.94c-3.39,7.76-3.37,16.3,.07,24.04,3.67,8.29,11,14.8,20.12,17.87,3.83,1.29,7.84,1.95,11.9,1.95,14.2,0,26.8-7.84,32.1-19.97l42.06-96.39,42.06,96.39c5.44,12.44,18.26,20,31.98,20,3.99,0,8.05-.64,12.02-1.98,9.11-3.07,16.44-9.59,20.11-17.87,3.43-7.74,3.45-16.28,.07-24.04l-74.16-169.93Z"/><path class="cls-1" d="M1273.82,691.56l-74.16-169.93c-5.29-12.13-17.89-19.97-32.09-19.97s-26.8,7.84-32.09,19.97l-74.16,169.94c-3.39,7.76-3.36,16.3,.07,24.04,3.67,8.28,11,14.8,20.12,17.87,3.83,1.29,7.84,1.95,11.9,1.95,14.2,0,26.8-7.84,32.1-19.97l42.06-96.39,42.07,96.39c5.43,12.44,18.26,20,31.98,20,3.99,0,8.05-.64,12.02-1.98,9.11-3.07,16.44-9.59,20.11-17.87,3.43-7.74,3.45-16.28,.07-24.04Z"/></g><circle class="cls-1" cx="808.25" cy="1119.9" r="92.98"/><circle class="cls-1" cx="1237.22" cy="1123.85" r="92.98"/><path class="cls-1" d="M2018.01,1179.71l-244.88-652.66c-24.77-66.03-87.9-109.76-158.42-109.76h-245.08v278.41c0,85.58-69.38,154.96-154.96,154.96h-381.34c-85.58,0-154.96-69.38-154.96-154.96V417.29h-245.08c-70.52,0-133.64,43.74-158.42,109.76L29.99,1179.71c-85.56,228.03,15.37,444.87,258.85,450.89,3.03,.07,6.08,.11,9.14,.11h0c155.03,0,292.62-99.31,341.45-246.44l60.08-150.63c-28-28.04-45.31-66.74-45.31-109.5,0-85.58,69.38-154.96,154.96-154.96s154.96,69.38,154.96,154.96c0,2.77-.08,5.53-.22,8.26h120.22c-.14-2.74-.22-5.49-.22-8.26,0-85.58,69.38-154.96,154.96-154.96s154.96,69.38,154.96,154.96c0,42.75-17.32,81.46-45.31,109.5l60.08,150.63c48.83,147.13,186.43,246.44,341.45,246.44h0c3.06,0,6.1-.04,9.14-.11,243.48-6.02,344.4-222.86,258.85-450.89ZM629.05,864.47c0,32.86-26.64,59.51-59.51,59.51h-66.94v66.94c0,32.86-26.64,59.51-59.51,59.51h0c-32.86,0-59.51-26.64-59.51-59.51v-66.94h-66.94c-32.86,0-59.51-26.64-59.51-59.51h0c0-32.86,26.64-59.51,59.51-59.51h66.94v-66.94c0-32.86,26.64-59.51,59.51-59.51h0c32.86,0,59.51,26.64,59.51,59.51v66.94h66.94c32.86,0,59.51,26.64,59.51,59.51h0Zm962.16-234.08c42.79,0,77.48,34.69,77.48,77.48s-34.69,77.48-77.48,77.48-77.48-34.69-77.48-77.48,34.69-77.48,77.48-77.48Zm-149.43,303.28c-42.79,0-77.48-34.69-77.48-77.48s34.69-77.48,77.48-77.48,77.48,34.69,77.48,77.48-34.69,77.48-77.48,77.48Zm149.43,146.42c-42.79,0-77.48-34.69-77.48-77.48s34.69-77.48,77.48-77.48,77.48,34.69,77.48,77.48-34.69,77.48-77.48,77.48Zm145.3-146.42c-42.79,0-77.48-34.69-77.48-77.48s34.69-77.48,77.48-77.48,77.48,34.69,77.48,77.48-34.69,77.48-77.48,77.48Z"/></svg>