<?xml version="1.0" encoding="UTF-8"?><svg id="Layer_1" xmlns="http://www.w3.org/2000/svg" viewBox="0 0 2048 2048"><defs><style>.cls-1{fill:#65aa39;}</style></defs><path class="cls-1" d="M360.23,821.37H33.38c-18.44,0-33.38,14.94-33.38,33.38H0c0,18.44,14.94,33.38,33.38,33.38h124.36v314.02c0,18.44,14.94,33.38,33.38,33.38h0c18.44,0,33.38-14.94,33.38-33.38v-314.02h135.74c18.44,0,33.38-14.94,33.38-33.38h0c0-18.44-14.94-33.38-33.38-33.38Z"/><g><rect class="cls-1" x="493.78" y="810.46" width="140.39" height="70.08"/><polygon class="cls-1" points="634.17 880.54 634.17 962.94 493.78 962.94 493.78 880.54 421.73 880.54 421.73 1235.52 493.78 1235.52 493.78 1033.02 634.17 1033.02 634.17 1235.52 706.22 1235.52 706.22 880.54 634.17 880.54"/></g><path class="cls-1" d="M838.7,888.91h179.99c20.62,0,37.33-16.79,37.33-37.51h0c0-20.72-16.71-37.51-37.33-37.51h-208.46c-.82,0-1.64,.04-2.44,.09-.76-.05-1.53-.09-2.3-.09h0c-18.35,0-33.22,14.94-33.22,33.38v179.62c0,3.72,.62,7.3,1.74,10.65,3.75,14.3,16.71,24.84,32.12,24.84h182.74v98.22h-179.99c-20.62,0-37.33,16.79-37.33,37.51h0c0,20.72,16.71,37.51,37.33,37.51h208.46c7.35,0,14.19-2.14,19.97-5.83,10.69-5.55,18-16.75,18-29.67v-164.19c.47-2.24,.73-4.56,.73-6.95v-8.26c0-15.14-10.03-27.91-23.77-32-3.21-1.04-6.62-1.6-10.17-1.6h0c-1.28,0-2.55,.08-3.79,.22h-179.58v-98.45Z"/><path class="cls-1" d="M1193.97,1028.7l158.8-158.8c13.04-13.04,13.04-34.17,0-47.21h0c-13.04-13.04-34.17-13.04-47.21,0l-133.6,133.6v-112.45c0-18.44-14.94-33.38-33.38-33.38h0c-18.44,0-33.38,14.94-33.38,33.38v176.68s0,0,0,0v181.73c0,18.44,14.94,33.38,33.38,33.38h0c18.44,0,33.38-14.94,33.38-33.38v-101.15l124.59,124.59c13.04,13.04,34.17,13.04,47.21,0h0c13.04-13.04,13.04-34.17,0-47.21l-149.8-149.8Z"/><path class="cls-1" d="M2014.62,1160.61h-184.35v-316.77c0-18.44-14.94-33.38-33.38-33.38h0c-18.44,0-33.38,14.94-33.38,33.38v358.42c0,18.44,14.94,33.38,33.38,33.38h217.73c18.44,0,33.38-14.94,33.38-33.38v-8.26c0-18.44-14.94-33.38-33.38-33.38Z"/><g><path class="cls-1" d="M1637.79,810.29h-217.73c26.07,26.07,40.69,40.69,66.76,66.76h217.73c-26.07-26.07-40.69-40.69-66.76-66.76Z"/><path class="cls-1" d="M1637.79,1164.74h-217.73c26.07,26.07,40.69,40.69,66.76,66.76h217.73c-26.07-26.07-40.69-40.69-66.76-66.76Z"/><path class="cls-1" d="M1420.06,1058.25h217.73c26.07-26.07,40.69-40.69,66.76-66.76h0s-217.73,0-217.73,0c-26.07,26.07-40.69,40.69-66.76,66.76Z"/></g></svg>